<?xml version="1.0" standalone="no"?>
<!DOCTYPE svg PUBLIC "-//W3C//DTD SVG 20010904//EN"
 "http://www.w3.org/TR/2001/REC-SVG-20010904/DTD/svg10.dtd">
<svg version="1.0" xmlns="http://www.w3.org/2000/svg"
 width="512.000000pt" height="512.000000pt" viewBox="0 0 512.000000 512.000000"
 preserveAspectRatio="xMidYMid meet">

<g transform="translate(0.000000,512.000000) scale(0.100000,-0.100000)"
fill="#000000" stroke="none">
<path d="M2263 4600 c-12 -5 -27 -18 -32 -29 -6 -11 -23 -132 -37 -268 -14
-136 -28 -251 -32 -254 -4 -3 -47 -20 -97 -38 -49 -19 -123 -49 -164 -67 -68
-31 -76 -33 -96 -20 -13 8 -112 78 -221 155 -109 78 -206 141 -216 141 -45 0
-95 -40 -275 -222 -179 -180 -193 -197 -193 -230 0 -32 21 -63 163 -245 l164
-210 -37 -74 c-21 -41 -50 -115 -65 -164 -16 -50 -31 -94 -35 -98 -4 -4 -115
-19 -246 -33 -131 -13 -252 -29 -267 -36 -15 -6 -37 -22 -47 -36 -19 -23 -20
-41 -20 -303 0 -153 4 -289 10 -303 5 -14 18 -29 28 -35 11 -6 131 -22 268
-36 137 -15 252 -30 255 -33 3 -4 20 -47 38 -97 19 -49 49 -123 67 -164 19
-40 31 -78 27 -85 -4 -6 -72 -93 -151 -194 -79 -100 -149 -194 -157 -208 -28
-55 -7 -85 198 -291 105 -106 204 -198 219 -204 40 -16 51 -10 240 138 90 71
180 142 201 157 l37 28 73 -35 c39 -20 116 -50 170 -67 78 -26 98 -36 102 -53
2 -12 15 -132 29 -267 21 -203 28 -247 42 -257 14 -10 91 -13 325 -13 277 0
309 2 328 18 20 15 24 39 47 267 14 138 28 256 32 263 4 7 45 26 92 43 46 16
119 45 162 65 42 20 83 34 90 31 7 -2 103 -75 212 -161 210 -165 226 -172 284
-142 15 8 111 99 214 203 190 191 211 222 190 266 -5 12 -80 112 -166 221 -86
109 -155 202 -153 205 32 59 81 176 103 249 20 63 33 92 44 92 30 0 495 51
512 56 32 10 38 61 38 340 0 171 4 275 10 279 6 3 10 14 10 24 0 40 -28 48
-245 70 -326 33 -288 21 -315 104 -12 40 -42 117 -66 171 -27 61 -41 103 -35
110 245 312 303 389 310 408 18 48 -6 80 -211 285 -188 188 -205 203 -238 203
-30 -1 -65 -25 -242 -164 l-207 -163 -77 39 c-42 21 -115 50 -163 64 -47 14
-91 31 -97 38 -6 6 -22 119 -34 251 l-23 240 -42 43 -42 42 -284 -1 c-156 0
-294 -4 -306 -9z m512 -1394 c205 -70 356 -219 429 -425 29 -80 31 -95 31
-221 0 -122 -3 -143 -28 -215 -73 -207 -221 -356 -426 -429 -80 -29 -96 -31
-221 -31 -125 0 -141 2 -221 31 -272 97 -444 329 -457 615 -4 85 0 121 16 188
64 252 243 434 494 501 108 29 274 23 383 -14z"/>
</g>
</svg>
