<?xml version="1.0" standalone="no"?>
<!DOCTYPE svg PUBLIC "-//W3C//DTD SVG 20010904//EN"
 "http://www.w3.org/TR/2001/REC-SVG-20010904/DTD/svg10.dtd">
<svg version="1.0" xmlns="http://www.w3.org/2000/svg"
 width="607.000000pt" height="350.000000pt" viewBox="0 0 607.000000 350.000000"
 preserveAspectRatio="xMidYMid meet">

<g transform="translate(0.000000,350.000000) scale(0.100000,-0.100000)"
fill="#000000" stroke="none">
<path d="M2965 3431 c-47 -22 -1641 -1375 -1681 -1427 -74 -97 -18 -248 106
-285 49 -15 107 0 160 39 37 28 765 643 1213 1025 148 125 272 227 277 225 5
-2 315 -264 690 -583 780 -663 803 -682 850 -702 99 -43 227 40 238 155 6 67
-10 110 -61 159 -107 104 -1617 1378 -1652 1394 -51 23 -89 23 -140 0z"/>
<path d="M3581 3315 c-39 -45 -39 -64 2 -102 26 -25 521 -445 580 -492 16 -13
17 5 17 288 0 288 -1 302 -20 321 -19 19 -33 20 -284 20 l-264 0 -31 -35z"/>
<path d="M2534 2418 c-275 -233 -576 -487 -670 -565 -94 -78 -176 -154 -182
-168 -16 -35 -17 -1537 -2 -1582 6 -17 22 -35 36 -42 17 -8 162 -11 484 -11
l460 0 0 553 c0 460 2 556 14 572 20 27 102 33 428 31 242 -1 269 -3 285 -19
17 -16 18 -57 23 -575 l5 -557 455 -3 c316 -1 463 1 482 9 15 6 31 24 37 41 8
21 11 279 11 790 0 675 -2 764 -16 794 -10 21 -86 92 -217 201 -111 93 -408
344 -660 558 -252 215 -462 391 -466 393 -4 1 -233 -188 -507 -420z"/>
</g>
</svg>
