<?xml version="1.0" standalone="no"?>
<!DOCTYPE svg PUBLIC "-//W3C//DTD SVG 20010904//EN"
 "http://www.w3.org/TR/2001/REC-SVG-20010904/DTD/svg10.dtd">
<svg version="1.0" xmlns="http://www.w3.org/2000/svg"
 width="512.000000pt" height="512.000000pt" viewBox="0 0 512.000000 512.000000"
 preserveAspectRatio="xMidYMid meet">

<g transform="translate(0.000000,512.000000) scale(0.100000,-0.100000)"
fill="#000000" stroke="none">
<path d="M1105 4676 c-166 -38 -305 -115 -426 -235 -178 -179 -255 -378 -246
-636 3 -113 8 -143 36 -225 47 -139 102 -230 201 -330 99 -101 183 -158 295
-201 128 -50 202 -62 350 -56 139 5 208 21 335 78 l64 30 271 -271 270 -270
-270 -270 -271 -271 -64 30 c-127 57 -196 73 -335 78 -148 6 -222 -6 -350 -56
-112 -43 -196 -100 -295 -201 -99 -100 -154 -191 -201 -330 -28 -82 -33 -112
-36 -225 -9 -258 68 -457 246 -636 167 -166 366 -249 601 -249 235 0 434 83
601 249 178 179 257 383 246 641 -5 133 -22 206 -78 330 l-30 64 1292 1292
1291 1291 -34 28 c-128 109 -335 125 -488 38 -28 -16 -330 -310 -783 -762
l-737 -736 -270 270 -271 271 30 64 c57 127 73 196 78 335 4 93 1 150 -10 200
-66 312 -285 554 -587 650 -72 24 -106 28 -225 31 -94 2 -160 -1 -200 -10z
m307 -426 c170 -52 284 -199 296 -382 22 -353 -382 -575 -671 -368 -235 169
-234 527 3 693 107 74 247 96 372 57z m-11 -2560 c224 -69 349 -308 279 -532
-86 -278 -423 -386 -659 -213 -230 169 -225 524 9 688 107 74 247 96 371 57z"/>
<path d="M3012 2107 l-152 -152 587 -586 c354 -352 606 -596 633 -611 156 -89
358 -73 488 39 l33 28 -718 718 -718 717 -153 -153z"/>
</g>
</svg>
